# Blender 3.3.1
# www.blender.org
mtllib rotor1.mtl
o blade_fly
v -0.133574 47.922623 -5.581731
v -0.133574 50.158897 37.464157
v 6.600288 50.158897 36.934196
v 13.168338 50.158897 35.357353
v 19.408854 50.158897 32.772446
v 25.168169 50.158897 29.243135
v 30.304468 50.158897 24.856310
v 34.691292 50.158901 19.720011
v 38.220600 50.158901 13.960695
v 40.805508 50.158905 7.720181
v 42.382355 50.158905 1.152132
v 42.912315 50.158905 -5.581731
v 42.382355 50.158905 -12.315594
v 40.805508 50.158905 -18.883642
v 38.220600 50.158909 -25.124159
v 34.691292 50.158909 -30.883474
v 30.304468 50.158913 -36.019775
v 25.168169 50.158913 -40.406601
v 19.408854 50.158913 -43.935905
v 13.168338 50.158913 -46.520813
v 6.600288 50.158913 -48.097664
v -0.133574 50.158913 -48.627625
v -6.867436 50.158913 -48.097664
v -13.435485 50.158913 -46.520813
v -19.676001 50.158913 -43.935905
v -25.435316 50.158913 -40.406601
v -30.571615 50.158913 -36.019775
v -34.958443 50.158909 -30.883474
v -38.487751 50.158909 -25.124159
v -41.072659 50.158905 -18.883642
v -42.649506 50.158905 -12.315594
v -43.179466 50.158905 -5.581731
v -42.649506 50.158905 1.152132
v -41.072659 50.158905 7.720181
v -38.487751 50.158901 13.960695
v -34.958443 50.158901 19.720011
v -30.571615 50.158897 24.856310
v -25.435316 50.158897 29.243135
v -19.676001 50.158897 32.772446
v -13.435485 50.158897 35.357353
v -6.867436 50.158897 36.934196
v 2.470644 48.199165 10.860651
v -0.133574 48.199165 11.065603
v 5.010737 48.199165 10.250834
v 7.424159 48.199165 9.251157
v 9.651484 48.199165 7.886248
v 11.637868 48.199165 6.189711
v 13.334402 48.199165 4.203325
v 14.699319 48.199165 1.976004
v 15.698986 48.199169 -0.437422
v 16.308813 48.199169 -2.977513
v 16.513781 48.199169 -5.581731
v 16.308813 48.199169 -8.185949
v 15.698986 48.199169 -10.726040
v 14.699320 48.199173 -13.139467
v 13.334401 48.199173 -15.366785
v 11.637868 48.199173 -17.353172
v 9.651484 48.199173 -19.049709
v 7.424159 48.199173 -20.414619
v 5.010736 48.199173 -21.414295
v 2.470644 48.199173 -22.024115
v -0.133574 48.199173 -22.229067
v -2.737791 48.199173 -22.024115
v -5.277884 48.199173 -21.414295
v -7.691307 48.199173 -20.414619
v -9.918632 48.199173 -19.049709
v -11.905015 48.199173 -17.353172
v -13.601548 48.199173 -15.366785
v -14.966467 48.199173 -13.139467
v -15.966148 48.199169 -10.726046
v -16.575960 48.199169 -8.185949
v -16.780928 48.199169 -5.581731
v -16.575960 48.199169 -2.977513
v -15.966148 48.199169 -0.437417
v -14.966466 48.199165 1.976004
v -13.601549 48.199165 4.203325
v -11.905015 48.199165 6.189711
v -9.918632 48.199165 7.886248
v -7.691307 48.199165 9.251157
v -5.277885 48.199165 10.250834
v -2.737792 48.199165 10.860651
vn -0.0058 0.9972 -0.0740
vn -0.0013 0.9999 -0.0166
vn -0.0173 0.9972 -0.0722
vn -0.0039 0.9999 -0.0162
vn -0.0284 0.9972 -0.0686
vn -0.0064 0.9999 -0.0154
vn -0.0388 0.9972 -0.0633
vn -0.0087 0.9999 -0.0142
vn -0.0482 0.9972 -0.0565
vn -0.0108 0.9999 -0.0127
vn -0.0565 0.9972 -0.0482
vn -0.0127 0.9999 -0.0108
vn -0.0633 0.9972 -0.0388
vn -0.0142 0.9999 -0.0087
vn -0.0686 0.9972 -0.0284
vn -0.0154 0.9999 -0.0064
vn -0.0722 0.9972 -0.0173
vn -0.0162 0.9999 -0.0039
vn -0.0740 0.9972 -0.0058
vn -0.0166 0.9999 -0.0013
vn -0.0740 0.9972 0.0058
vn -0.0166 0.9999 0.0013
vn -0.0722 0.9972 0.0173
vn -0.0162 0.9999 0.0039
vn -0.0686 0.9972 0.0284
vn -0.0154 0.9999 0.0064
vn -0.0633 0.9972 0.0388
vn -0.0142 0.9999 0.0087
vn -0.0565 0.9972 0.0482
vn -0.0127 0.9999 0.0108
vn -0.0482 0.9972 0.0565
vn -0.0108 0.9999 0.0127
vn -0.0388 0.9972 0.0633
vn -0.0087 0.9999 0.0142
vn -0.0284 0.9972 0.0686
vn -0.0064 0.9999 0.0154
vn -0.0173 0.9972 0.0722
vn -0.0039 0.9999 0.0162
vn -0.0058 0.9972 0.0740
vn -0.0013 0.9999 0.0166
vn 0.0058 0.9972 0.0740
vn 0.0013 0.9999 0.0166
vn 0.0173 0.9972 0.0722
vn 0.0039 0.9999 0.0162
vn 0.0284 0.9972 0.0686
vn 0.0064 0.9999 0.0154
vn 0.0388 0.9972 0.0633
vn 0.0087 0.9999 0.0142
vn 0.0482 0.9972 0.0565
vn 0.0108 0.9999 0.0127
vn 0.0565 0.9972 0.0482
vn 0.0127 0.9999 0.0108
vn 0.0633 0.9972 0.0388
vn 0.0142 0.9999 0.0087
vn 0.0686 0.9972 0.0284
vn 0.0154 0.9999 0.0064
vn 0.0722 0.9972 0.0173
vn 0.0162 0.9999 0.0039
vn 0.0740 0.9972 0.0058
vn 0.0166 0.9999 0.0013
vn 0.0740 0.9972 -0.0058
vn 0.0166 0.9999 -0.0013
vn 0.0722 0.9972 -0.0173
vn 0.0162 0.9999 -0.0039
vn 0.0686 0.9972 -0.0284
vn 0.0154 0.9999 -0.0064
vn 0.0633 0.9972 -0.0388
vn 0.0142 0.9999 -0.0087
vn 0.0565 0.9972 -0.0482
vn 0.0127 0.9999 -0.0108
vn 0.0482 0.9972 -0.0565
vn 0.0108 0.9999 -0.0127
vn 0.0388 0.9972 -0.0633
vn 0.0087 0.9999 -0.0142
vn 0.0284 0.9972 -0.0686
vn 0.0064 0.9999 -0.0154
vn 0.0173 0.9972 -0.0722
vn 0.0039 0.9999 -0.0162
vn 0.0058 0.9972 -0.0740
vn 0.0013 0.9999 -0.0166
vn 0.0058 -0.9972 0.0740
vn 0.0013 -0.9999 0.0166
vn 0.0173 -0.9972 0.0722
vn 0.0039 -0.9999 0.0162
vn 0.0284 -0.9972 0.0686
vn 0.0064 -0.9999 0.0154
vn 0.0388 -0.9972 0.0633
vn 0.0087 -0.9999 0.0142
vn 0.0482 -0.9972 0.0565
vn 0.0108 -0.9999 0.0127
vn 0.0565 -0.9972 0.0482
vn 0.0127 -0.9999 0.0108
vn 0.0633 -0.9972 0.0388
vn 0.0142 -0.9999 0.0087
vn 0.0686 -0.9972 0.0284
vn 0.0154 -0.9999 0.0064
vn 0.0722 -0.9972 0.0173
vn 0.0162 -0.9999 0.0039
vn 0.0740 -0.9972 0.0058
vn 0.0166 -0.9999 0.0013
vn 0.0740 -0.9972 -0.0058
vn 0.0166 -0.9999 -0.0013
vn 0.0722 -0.9972 -0.0173
vn 0.0162 -0.9999 -0.0039
vn 0.0686 -0.9972 -0.0284
vn 0.0154 -0.9999 -0.0064
vn 0.0633 -0.9972 -0.0388
vn 0.0142 -0.9999 -0.0087
vn 0.0565 -0.9972 -0.0482
vn 0.0127 -0.9999 -0.0108
vn 0.0482 -0.9972 -0.0565
vn 0.0108 -0.9999 -0.0127
vn 0.0388 -0.9972 -0.0633
vn 0.0087 -0.9999 -0.0142
vn 0.0284 -0.9972 -0.0686
vn 0.0064 -0.9999 -0.0154
vn 0.0173 -0.9972 -0.0722
vn 0.0039 -0.9999 -0.0162
vn 0.0058 -0.9972 -0.0740
vn 0.0013 -0.9999 -0.0166
vn -0.0058 -0.9972 -0.0740
vn -0.0013 -0.9999 -0.0166
vn -0.0173 -0.9972 -0.0722
vn -0.0039 -0.9999 -0.0162
vn -0.0284 -0.9972 -0.0686
vn -0.0064 -0.9999 -0.0154
vn -0.0388 -0.9972 -0.0633
vn -0.0087 -0.9999 -0.0142
vn -0.0482 -0.9972 -0.0565
vn -0.0108 -0.9999 -0.0127
vn -0.0565 -0.9972 -0.0482
vn -0.0127 -0.9999 -0.0108
vn -0.0633 -0.9972 -0.0388
vn -0.0142 -0.9999 -0.0087
vn -0.0686 -0.9972 -0.0284
vn -0.0154 -0.9999 -0.0064
vn -0.0722 -0.9972 -0.0173
vn -0.0162 -0.9999 -0.0039
vn -0.0740 -0.9972 -0.0058
vn -0.0166 -0.9999 -0.0013
vn -0.0740 -0.9972 0.0058
vn -0.0166 -0.9999 0.0013
vn -0.0722 -0.9972 0.0173
vn -0.0162 -0.9999 0.0039
vn -0.0686 -0.9972 0.0284
vn -0.0154 -0.9999 0.0064
vn -0.0633 -0.9972 0.0388
vn -0.0142 -0.9999 0.0087
vn -0.0565 -0.9972 0.0482
vn -0.0127 -0.9999 0.0108
vn -0.0482 -0.9972 0.0565
vn -0.0108 -0.9999 0.0127
vn -0.0388 -0.9972 0.0633
vn -0.0087 -0.9999 0.0142
vn -0.0284 -0.9972 0.0686
vn -0.0064 -0.9999 0.0154
vn -0.0173 -0.9972 0.0722
vn -0.0039 -0.9999 0.0162
vn -0.0058 -0.9972 0.0740
vn -0.0013 -0.9999 0.0166
vt 0.500020 0.500020
vt 0.148720 0.144180
vt 0.208710 0.093610
vt 0.275870 0.053050
vt 0.348550 0.023490
vt 0.424960 0.005660
vt 0.503210 0.000010
vt 0.581390 0.006670
vt 0.657560 0.025470
vt 0.729850 0.055960
vt 0.796480 0.097390
vt 0.855820 0.148720
vt 0.906390 0.208710
vt 0.946950 0.275870
vt 0.976510 0.348550
vt 0.994340 0.424960
vt 0.999990 0.503210
vt 0.993330 0.581390
vt 0.974530 0.657560
vt 0.944040 0.729850
vt 0.902610 0.796480
vt 0.851280 0.855820
vt 0.791290 0.906390
vt 0.724130 0.946950
vt 0.651450 0.976510
vt 0.575040 0.994340
vt 0.496790 0.999990
vt 0.418610 0.993330
vt 0.342440 0.974530
vt 0.270150 0.944040
vt 0.203520 0.902610
vt 0.144180 0.851280
vt 0.093610 0.791290
vt 0.053050 0.724130
vt 0.023490 0.651450
vt 0.005660 0.575040
vt 0.000010 0.496790
vt 0.006670 0.418610
vt 0.025470 0.342440
vt 0.055960 0.270150
vt 0.097390 0.203520
vt 0.387360 0.342850
vt 0.364160 0.362410
vt 0.413330 0.327160
vt 0.441440 0.315730
vt 0.470990 0.308840
vt 0.501260 0.306650
vt 0.531490 0.309230
vt 0.560950 0.316500
vt 0.588910 0.328290
vt 0.614670 0.344310
vt 0.637620 0.364160
vt 0.657180 0.387360
vt 0.672870 0.413340
vt 0.684300 0.441440
vt 0.691190 0.470990
vt 0.693380 0.501260
vt 0.690800 0.531490
vt 0.683530 0.560950
vt 0.671740 0.588910
vt 0.655720 0.614670
vt 0.635860 0.637620
vt 0.612660 0.657180
vt 0.586690 0.672870
vt 0.558580 0.684300
vt 0.529040 0.691190
vt 0.498770 0.693380
vt 0.468540 0.690800
vt 0.439080 0.683530
vt 0.411120 0.671740
vt 0.385350 0.655720
vt 0.362410 0.635860
vt 0.342850 0.612670
vt 0.327160 0.586690
vt 0.315730 0.558590
vt 0.308840 0.529040
vt 0.306650 0.498770
vt 0.309230 0.468540
vt 0.316500 0.439080
vt 0.328290 0.411120
vt 0.344310 0.385350
s 0
usemtl mat4
f 43/43/1 2/2/1 3/3/1 42/42/1
f 42/42/2 1/1/2 43/43/2
f 42/42/3 3/3/3 4/4/3 44/44/3
f 44/44/4 1/1/4 42/42/4
f 44/44/5 4/4/5 5/5/5 45/45/5
f 45/45/6 1/1/6 44/44/6
f 45/45/7 5/5/7 6/6/7 46/46/7
f 46/46/8 1/1/8 45/45/8
f 46/46/9 6/6/9 7/7/9 47/47/9
f 47/47/10 1/1/10 46/46/10
f 47/47/11 7/7/11 8/8/11 48/48/11
f 48/48/12 1/1/12 47/47/12
f 48/48/13 8/8/13 9/9/13 49/49/13
f 49/49/14 1/1/14 48/48/14
f 49/49/15 9/9/15 10/10/15 50/50/15
f 50/50/16 1/1/16 49/49/16
f 50/50/17 10/10/17 11/11/17 51/51/17
f 51/51/18 1/1/18 50/50/18
f 51/51/19 11/11/19 12/12/19 52/52/19
f 52/52/20 1/1/20 51/51/20
f 52/52/21 12/12/21 13/13/21 53/53/21
f 53/53/22 1/1/22 52/52/22
f 53/53/23 13/13/23 14/14/23 54/54/23
f 54/54/24 1/1/24 53/53/24
f 54/54/25 14/14/25 15/15/25 55/55/25
f 55/55/26 1/1/26 54/54/26
f 55/55/27 15/15/27 16/16/27 56/56/27
f 56/56/28 1/1/28 55/55/28
f 56/56/29 16/16/29 17/17/29 57/57/29
f 57/57/30 1/1/30 56/56/30
f 57/57/31 17/17/31 18/18/31 58/58/31
f 58/58/32 1/1/32 57/57/32
f 58/58/33 18/18/33 19/19/33 59/59/33
f 59/59/34 1/1/34 58/58/34
f 59/59/35 19/19/35 20/20/35 60/60/35
f 60/60/36 1/1/36 59/59/36
f 60/60/37 20/20/37 21/21/37 61/61/37
f 61/61/38 1/1/38 60/60/38
f 61/61/39 21/21/39 22/22/39 62/62/39
f 62/62/40 1/1/40 61/61/40
f 62/62/41 22/22/41 23/23/41 63/63/41
f 63/63/42 1/1/42 62/62/42
f 63/63/43 23/23/43 24/24/43 64/64/43
f 64/64/44 1/1/44 63/63/44
f 64/64/45 24/24/45 25/25/45 65/65/45
f 65/65/46 1/1/46 64/64/46
f 65/65/47 25/25/47 26/26/47 66/66/47
f 66/66/48 1/1/48 65/65/48
f 66/66/49 26/26/49 27/27/49 67/67/49
f 67/67/50 1/1/50 66/66/50
f 67/67/51 27/27/51 28/28/51 68/68/51
f 68/68/52 1/1/52 67/67/52
f 68/68/53 28/28/53 29/29/53 69/69/53
f 69/69/54 1/1/54 68/68/54
f 69/69/55 29/29/55 30/30/55 70/70/55
f 70/70/56 1/1/56 69/69/56
f 70/70/57 30/30/57 31/31/57 71/71/57
f 71/71/58 1/1/58 70/70/58
f 71/71/59 31/31/59 32/32/59 72/72/59
f 72/72/60 1/1/60 71/71/60
f 72/72/61 32/32/61 33/33/61 73/73/61
f 73/73/62 1/1/62 72/72/62
f 73/73/63 33/33/63 34/34/63 74/74/63
f 74/74/64 1/1/64 73/73/64
f 74/74/65 34/34/65 35/35/65 75/75/65
f 75/75/66 1/1/66 74/74/66
f 75/75/67 35/35/67 36/36/67 76/76/67
f 76/76/68 1/1/68 75/75/68
f 76/76/69 36/36/69 37/37/69 77/77/69
f 77/77/70 1/1/70 76/76/70
f 77/77/71 37/37/71 38/38/71 78/78/71
f 78/78/72 1/1/72 77/77/72
f 78/78/73 38/38/73 39/39/73 79/79/73
f 79/79/74 1/1/74 78/78/74
f 79/79/75 39/39/75 40/40/75 80/80/75
f 80/80/76 1/1/76 79/79/76
f 80/80/77 40/40/77 41/41/77 81/81/77
f 81/81/78 1/1/78 80/80/78
f 81/81/79 41/41/79 2/2/79 43/43/79
f 43/43/80 1/1/80 81/81/80
f 42/42/81 3/3/81 2/2/81 43/43/81
f 43/43/82 1/1/82 42/42/82
f 44/44/83 4/4/83 3/3/83 42/42/83
f 42/42/84 1/1/84 44/44/84
f 45/45/85 5/5/85 4/4/85 44/44/85
f 44/44/86 1/1/86 45/45/86
f 46/46/87 6/6/87 5/5/87 45/45/87
f 45/45/88 1/1/88 46/46/88
f 47/47/89 7/7/89 6/6/89 46/46/89
f 46/46/90 1/1/90 47/47/90
f 48/48/91 8/8/91 7/7/91 47/47/91
f 47/47/92 1/1/92 48/48/92
f 49/49/93 9/9/93 8/8/93 48/48/93
f 48/48/94 1/1/94 49/49/94
f 50/50/95 10/10/95 9/9/95 49/49/95
f 49/49/96 1/1/96 50/50/96
f 51/51/97 11/11/97 10/10/97 50/50/97
f 50/50/98 1/1/98 51/51/98
f 52/52/99 12/12/99 11/11/99 51/51/99
f 51/51/100 1/1/100 52/52/100
f 53/53/101 13/13/101 12/12/101 52/52/101
f 52/52/102 1/1/102 53/53/102
f 54/54/103 14/14/103 13/13/103 53/53/103
f 53/53/104 1/1/104 54/54/104
f 55/55/105 15/15/105 14/14/105 54/54/105
f 54/54/106 1/1/106 55/55/106
f 56/56/107 16/16/107 15/15/107 55/55/107
f 55/55/108 1/1/108 56/56/108
f 57/57/109 17/17/109 16/16/109 56/56/109
f 56/56/110 1/1/110 57/57/110
f 58/58/111 18/18/111 17/17/111 57/57/111
f 57/57/112 1/1/112 58/58/112
f 59/59/113 19/19/113 18/18/113 58/58/113
f 58/58/114 1/1/114 59/59/114
f 60/60/115 20/20/115 19/19/115 59/59/115
f 59/59/116 1/1/116 60/60/116
f 61/61/117 21/21/117 20/20/117 60/60/117
f 60/60/118 1/1/118 61/61/118
f 62/62/119 22/22/119 21/21/119 61/61/119
f 61/61/120 1/1/120 62/62/120
f 63/63/121 23/23/121 22/22/121 62/62/121
f 62/62/122 1/1/122 63/63/122
f 64/64/123 24/24/123 23/23/123 63/63/123
f 63/63/124 1/1/124 64/64/124
f 65/65/125 25/25/125 24/24/125 64/64/125
f 64/64/126 1/1/126 65/65/126
f 66/66/127 26/26/127 25/25/127 65/65/127
f 65/65/128 1/1/128 66/66/128
f 67/67/129 27/27/129 26/26/129 66/66/129
f 66/66/130 1/1/130 67/67/130
f 68/68/131 28/28/131 27/27/131 67/67/131
f 67/67/132 1/1/132 68/68/132
f 69/69/133 29/29/133 28/28/133 68/68/133
f 68/68/134 1/1/134 69/69/134
f 70/70/135 30/30/135 29/29/135 69/69/135
f 69/69/136 1/1/136 70/70/136
f 71/71/137 31/31/137 30/30/137 70/70/137
f 70/70/138 1/1/138 71/71/138
f 72/72/139 32/32/139 31/31/139 71/71/139
f 71/71/140 1/1/140 72/72/140
f 73/73/141 33/33/141 32/32/141 72/72/141
f 72/72/142 1/1/142 73/73/142
f 74/74/143 34/34/143 33/33/143 73/73/143
f 73/73/144 1/1/144 74/74/144
f 75/75/145 35/35/145 34/34/145 74/74/145
f 74/74/146 1/1/146 75/75/146
f 76/76/147 36/36/147 35/35/147 75/75/147
f 75/75/148 1/1/148 76/76/148
f 77/77/149 37/37/149 36/36/149 76/76/149
f 76/76/150 1/1/150 77/77/150
f 78/78/151 38/38/151 37/37/151 77/77/151
f 77/77/152 1/1/152 78/78/152
f 79/79/153 39/39/153 38/38/153 78/78/153
f 78/78/154 1/1/154 79/79/154
f 80/80/155 40/40/155 39/39/155 79/79/155
f 79/79/156 1/1/156 80/80/156
f 81/81/157 41/41/157 40/40/157 80/80/157
f 80/80/158 1/1/158 81/81/158
f 43/43/159 2/2/159 41/41/159 81/81/159
f 81/81/160 1/1/160 43/43/160
